<?xml version="1.0" encoding="UTF-8" standalone="no"?>
<!DOCTYPE svg PUBLIC "-//W3C//DTD SVG 1.1//EN"
 "http://www.w3.org/Graphics/SVG/1.1/DTD/svg11.dtd">
<!-- Generated by graphviz version 14.0.4 (20251115.1723)
 -->
<!-- Pages: 1 -->
<svg width="378pt" height="252pt"
 viewBox="0.00 0.00 378.00 252.00" xmlns="http://www.w3.org/2000/svg" xmlns:xlink="http://www.w3.org/1999/xlink">
<g id="graph0" class="graph" transform="scale(1 1) rotate(0) translate(18 233.5)">
<polygon fill="white" stroke="none" points="-18,18 -18,-233.5 359.75,-233.5 359.75,18 -18,18"/>
<!-- clave -->
<g id="node1" class="node">
<title>clave</title>
<path fill="#fef3c7" stroke="#334155" d="M214.38,-215.5C214.38,-215.5 148.12,-215.5 148.12,-215.5 142.12,-215.5 136.12,-209.5 136.12,-203.5 136.12,-203.5 136.12,-191.5 136.12,-191.5 136.12,-185.5 142.12,-179.5 148.12,-179.5 148.12,-179.5 214.38,-179.5 214.38,-179.5 220.38,-179.5 226.38,-185.5 226.38,-191.5 226.38,-191.5 226.38,-203.5 226.38,-203.5 226.38,-209.5 220.38,-215.5 214.38,-215.5"/>
<text xml:space="preserve" text-anchor="middle" x="181.25" y="-200.55" font-family="Arial" font-size="11.00">Ejemplo ficticio:</text>
<text xml:space="preserve" text-anchor="middle" x="181.25" y="-187.05" font-family="Arial" font-size="11.00">Luna2026!</text>
</g>
<!-- general -->
<g id="node2" class="node">
<title>general</title>
<path fill="#dbeafe" stroke="#334155" d="M164.5,-121C164.5,-121 12,-121 12,-121 6,-121 0,-115 0,-109 0,-109 0,-97 0,-97 0,-91 6,-85 12,-85 12,-85 164.5,-85 164.5,-85 170.5,-85 176.5,-91 176.5,-97 176.5,-97 176.5,-109 176.5,-109 176.5,-115 170.5,-121 164.5,-121"/>
<text xml:space="preserve" text-anchor="middle" x="88.25" y="-106.05" font-family="Arial" font-size="11.00">Ruta A: combinaciones generales</text>
<text xml:space="preserve" text-anchor="middle" x="88.25" y="-92.55" font-family="Arial" font-size="11.00">(acotadas para la demo)</text>
</g>
<!-- clave&#45;&gt;general -->
<g id="edge1" class="edge">
<title>clave&#45;&gt;general</title>
<path fill="none" stroke="#64748b" d="M163.76,-179.1C149.21,-164.63 128.35,-143.89 112.24,-127.87"/>
<polygon fill="#64748b" stroke="#64748b" points="114.38,-126.04 106.74,-122.39 110.43,-130.01 114.38,-126.04"/>
<text xml:space="preserve" text-anchor="middle" x="157.79" y="-146.95" font-family="Arial" font-size="9.00">sin patrón</text>
</g>
<!-- patron -->
<g id="node3" class="node">
<title>patron</title>
<path fill="#dcfce7" stroke="#334155" d="M329.75,-121C329.75,-121 220.75,-121 220.75,-121 214.75,-121 208.75,-115 208.75,-109 208.75,-109 208.75,-97 208.75,-97 208.75,-91 214.75,-85 220.75,-85 220.75,-85 329.75,-85 329.75,-85 335.75,-85 341.75,-91 341.75,-97 341.75,-97 341.75,-109 341.75,-109 341.75,-115 335.75,-121 329.75,-121"/>
<text xml:space="preserve" text-anchor="middle" x="275.25" y="-106.05" font-family="Arial" font-size="11.00">Ruta B: priorizar</text>
<text xml:space="preserve" text-anchor="middle" x="275.25" y="-92.55" font-family="Arial" font-size="11.00">palabra + año + símbolo</text>
</g>
<!-- clave&#45;&gt;patron -->
<g id="edge2" class="edge">
<title>clave&#45;&gt;patron</title>
<path fill="none" stroke="#64748b" d="M198.93,-179.1C213.64,-164.63 234.72,-143.89 251,-127.87"/>
<polygon fill="#64748b" stroke="#64748b" points="252.83,-129.99 256.57,-122.38 248.9,-126 252.83,-129.99"/>
<text xml:space="preserve" text-anchor="middle" x="252.82" y="-146.95" font-family="Arial" font-size="9.00">con patrón</text>
</g>
<!-- medir -->
<g id="node4" class="node">
<title>medir</title>
<path fill="#f3e8ff" stroke="#334155" d="M253,-36C253,-36 109.5,-36 109.5,-36 103.5,-36 97.5,-30 97.5,-24 97.5,-24 97.5,-12 97.5,-12 97.5,-6 103.5,0 109.5,0 109.5,0 253,0 253,0 259,0 265,-6 265,-12 265,-12 265,-24 265,-24 265,-30 259,-36 253,-36"/>
<text xml:space="preserve" text-anchor="middle" x="181.25" y="-21.05" font-family="Arial" font-size="11.00">Comparar candidatos probados</text>
<text xml:space="preserve" text-anchor="middle" x="181.25" y="-7.55" font-family="Arial" font-size="11.00">y tiempo observado</text>
</g>
<!-- general&#45;&gt;medir -->
<g id="edge3" class="edge">
<title>general&#45;&gt;medir</title>
<path fill="none" stroke="#64748b" d="M107.52,-84.8C121.14,-72.64 139.59,-56.18 154.62,-42.77"/>
<polygon fill="#64748b" stroke="#64748b" points="156.45,-44.88 160.56,-37.47 152.72,-40.71 156.45,-44.88"/>
</g>
<!-- patron&#45;&gt;medir -->
<g id="edge4" class="edge">
<title>patron&#45;&gt;medir</title>
<path fill="none" stroke="#64748b" d="M255.77,-84.8C241.88,-72.53 223.02,-55.88 207.76,-42.4"/>
<polygon fill="#64748b" stroke="#64748b" points="210.01,-40.66 202.16,-37.46 206.3,-44.86 210.01,-40.66"/>
</g>
</g>
</svg>
